<?xml version="1.0" standalone="no"?>
<!DOCTYPE svg PUBLIC "-//W3C//DTD SVG 20010904//EN"
 "http://www.w3.org/TR/2001/REC-SVG-20010904/DTD/svg10.dtd">
<svg version="1.0" xmlns="http://www.w3.org/2000/svg"
 width="144.000000pt" height="656.000000pt" viewBox="0 0 144.000000 656.000000"
 preserveAspectRatio="xMidYMid meet">
<metadata>
Created by potrace 1.16, written by Peter Selinger 2001-2019
</metadata>
<g transform="translate(0.000000,656.000000) scale(0.100000,-0.100000)"
fill="#000000" stroke="none">
<path d="M0 5743 c0 -449 3 -813 7 -810 3 4 12 2 20 -4 9 -8 13 -36 13 -88 0
-104 -9 -153 -26 -147 -12 5 -14 -158 -14 -1013 l0 -1019 29 -5 c16 -4 35 -14
43 -23 7 -9 26 -30 42 -46 28 -27 29 -34 28 -106 -1 -42 -1 -80 -2 -84 0 -13
-34 -8 -54 7 -15 11 -23 12 -40 3 -11 -7 -27 -11 -34 -10 -10 2 -12 -73 -10
-365 l3 -368 98 -2 c54 0 101 -3 104 -6 3 -3 -8 -12 -24 -21 -16 -8 -42 -33
-58 -55 -26 -38 -31 -41 -76 -41 l-49 0 0 -772 0 -771 398 6 c218 4 542 7 720
7 l322 0 0 335 0 335 -59 0 c-41 0 -62 -5 -72 -16 -7 -9 -33 -30 -58 -46 -25
-17 -71 -55 -102 -84 -31 -29 -67 -55 -80 -58 -13 -3 -37 -8 -54 -11 -16 -3
-40 -6 -53 -6 -13 1 -51 -13 -84 -29 -33 -17 -61 -30 -62 -30 0 0 0 31 2 68
l3 68 47 14 c51 15 130 16 145 1 6 -6 5 -21 -1 -40 -13 -37 4 -43 18 -7 4 13
39 44 77 69 108 72 121 124 41 162 -51 24 -75 68 -84 152 -7 65 1 79 36 68 25
-8 28 -66 5 -85 -21 -18 -19 -36 7 -54 37 -26 60 -18 113 41 l49 56 0 76 c0
42 -5 95 -12 118 -11 37 -17 43 -48 49 -23 4 -46 1 -67 -9 -91 -43 -110 -48
-118 -35 -12 19 -11 23 11 43 11 10 20 23 20 28 0 6 10 21 22 34 18 19 24 40
29 106 3 45 7 70 7 55 3 -42 21 -83 33 -71 6 6 0 44 -16 108 -33 124 -31 150
10 150 26 1 30 5 33 32 2 20 10 34 20 37 9 3 68 -1 130 -7 l112 -13 0 1478 0
1478 -25 -12 c-14 -6 -28 -9 -31 -5 -10 9 15 45 36 52 20 6 20 15 20 980 l0
974 -720 1 -720 0 0 -817z m657 760 c8 -21 -14 -40 -28 -26 -7 7 -25 9 -40 6
-16 -3 -35 0 -43 6 -8 7 -17 8 -20 3 -8 -13 -179 -9 -183 5 -6 17 20 20 170
20 111 0 140 -3 144 -14z m-327 -1 c0 -5 -9 -17 -20 -27 -20 -18 -20 -17 -20
8 0 20 5 27 20 27 11 0 20 -4 20 -8z m874 -207 c-4 -8 -10 -15 -15 -15 -5 0
-9 7 -9 15 0 8 7 15 15 15 9 0 12 -6 9 -15z m-568 -274 c1 -1 -46 -102 -69
-150 -7 -14 -18 -26 -26 -29 -12 -4 -13 9 -8 75 9 111 11 116 61 109 22 -3 41
-5 42 -5z m219 -35 c14 -37 23 -46 49 -52 35 -7 66 -31 66 -51 0 -21 40 -55
57 -48 17 6 33 -10 33 -32 0 -7 -12 -12 -27 -12 -16 -1 -57 -4 -93 -8 -65 -8
-65 -8 -62 -38 2 -16 9 -37 16 -45 7 -8 18 -29 25 -47 7 -17 21 -39 32 -49 15
-14 19 -31 19 -85 l0 -69 60 7 c50 5 61 3 66 -11 10 -27 -6 -68 -39 -100 -18
-17 -41 -44 -51 -61 -20 -31 -32 -42 -125 -112 -56 -43 -101 -56 -101 -29 0 7
9 16 20 19 23 6 27 27 6 27 -7 0 -30 -7 -49 -15 -46 -19 -67 -11 -67 26 0 32
23 49 66 49 50 0 11 16 -80 33 -49 10 -96 23 -104 30 -8 6 -24 32 -35 56 -19
43 -19 45 -1 58 10 7 34 13 53 13 61 0 66 9 64 102 -1 46 -3 97 -5 113 -2 25
1 31 20 33 23 3 24 1 20 -42 -4 -56 9 -61 40 -15 20 28 23 43 20 87 -6 73 -47
101 -99 70 -17 -11 -22 -10 -35 7 -30 41 11 125 71 145 19 6 52 29 73 50 51
53 76 52 97 -4z m413 2 c4 -48 -25 -70 -82 -62 -47 7 -66 26 -66 65 0 32 12
37 90 35 l55 -1 3 -37z m-833 -164 c8 -4 22 -19 30 -34 9 -17 29 -33 50 -40
34 -11 35 -13 29 -48 -10 -61 -13 -69 -39 -80 -14 -6 -25 -18 -25 -27 0 -8 -7
-15 -16 -15 -13 0 -14 3 -5 14 9 11 8 15 -5 20 -14 5 -16 17 -10 79 6 77 3 88
-31 106 -40 21 -22 41 22 25z m801 -261 c-4 -4 -11 -2 -17 4 -8 8 -9 33 -3 80
l8 68 9 -73 c5 -40 6 -76 3 -79z m-160 93 c10 -43 1 -61 -31 -61 -26 0 -30 4
-33 30 -6 49 52 77 64 31z m268 -187 c21 -31 -3 -79 -41 -79 -17 0 -53 36 -53
54 0 43 68 61 94 25z m-834 -247 c0 -10 5 -23 10 -28 14 -14 18 -78 5 -82 -5
-2 -17 19 -25 47 -8 27 -18 53 -22 57 -14 13 -8 24 12 24 13 0 20 -7 20 -18z
m625 -39 c-62 -58 -123 -92 -163 -93 -33 0 -62 18 -62 39 0 25 41 41 106 41
46 0 63 6 107 35 76 51 81 42 12 -22z m-713 -50 c20 -18 23 -38 8 -48 -8 -5
-40 43 -40 60 0 10 13 5 32 -12z m926 -25 c2 -18 -6 -34 -28 -55 -25 -24 -33
-41 -41 -98 -6 -39 -9 -102 -7 -142 4 -58 2 -70 -9 -66 -11 4 -13 31 -10 132
4 103 8 133 25 166 12 22 26 53 32 68 12 34 34 31 38 -5z m-1085 10 c19 -15
67 -78 67 -90 0 -4 -17 11 -37 33 -21 22 -56 46 -78 54 l-40 14 36 1 c19 0 43
-6 52 -12z m-33 -38 c11 -11 20 -29 20 -39 0 -17 -4 -15 -30 11 -16 16 -30 34
-30 39 0 15 19 10 40 -11z m-130 -20 c0 -5 -5 -10 -11 -10 -5 0 -7 5 -4 10 3
6 8 10 11 10 2 0 4 -4 4 -10z m990 6 c0 -18 -15 -36 -31 -36 -21 0 -26 25 -6
33 16 7 37 8 37 3z m-891 -15 c22 -14 4 -51 -25 -51 -13 0 -24 -4 -24 -10 0
-5 9 -10 20 -10 11 0 20 -4 20 -9 0 -6 -12 -6 -30 0 -23 9 -30 17 -30 38 0 43
34 64 69 42z m321 -6 c0 -8 -9 -15 -20 -15 -11 0 -20 7 -20 15 0 8 9 15 20 15
11 0 20 -7 20 -15z m-448 -50 c4 -35 3 -36 -26 -33 -36 3 -45 27 -21 52 26 26
42 19 47 -19z m1151 -244 c-1 -2 -10 -1 -19 3 -13 5 -15 9 -6 18 7 7 13 50 14
108 l2 95 5 -110 c4 -60 5 -112 4 -114z m-1103 104 c0 -19 -4 -37 -10 -40 -6
-4 -10 12 -10 40 0 28 4 44 10 40 6 -3 10 -21 10 -40z m551 -144 c1 -43 5 -55
20 -58 11 -3 19 -9 19 -14 0 -5 -6 -6 -14 -3 -10 4 -13 -5 -13 -36 0 -31 3
-40 13 -36 10 4 14 -3 14 -20 0 -13 -7 -27 -15 -30 -8 -4 -15 -15 -15 -26 0
-14 5 -18 16 -14 10 4 14 1 12 -6 -3 -7 -11 -13 -19 -13 -9 0 -15 -12 -15 -35
-1 -19 -7 -57 -13 -84 -7 -28 -8 -53 -3 -58 14 -14 41 2 44 25 4 29 32 28 36
0 2 -17 10 -23 27 -23 30 0 41 16 24 36 -9 11 -9 18 -1 26 12 12 35 1 29 -15
-12 -34 50 -66 68 -37 10 16 35 -8 35 -32 0 -15 -5 -18 -16 -14 -15 6 -16 -1
-11 -61 2 -38 8 -77 12 -88 6 -16 5 -17 -4 -5 -9 12 -11 10 -11 -11 0 -30 -26
-39 -110 -39 -43 0 -48 3 -54 25 -4 14 -4 30 0 36 3 6 -2 19 -11 29 -9 10 -14
23 -11 28 3 5 2 22 -3 38 -6 24 -13 29 -37 29 l-29 0 -1 90 c0 50 -1 114 -2
142 l-2 53 -45 -2 -45 -2 0 -38 c0 -52 -20 -48 -21 5 -5 151 -4 239 3 243 4 3
8 16 8 30 0 15 6 24 15 24 8 0 15 -7 15 -15 0 -8 5 -15 10 -15 6 0 10 -7 10
-15 0 -9 9 -15 25 -15 19 0 25 5 25 23 0 27 20 51 32 39 5 -5 9 -32 9 -61z
m504 60 c3 -5 1 -13 -5 -16 -15 -9 -43 3 -35 15 8 13 32 13 40 1z m140 -61
c33 0 38 -25 14 -77 -14 -30 -19 -56 -15 -77 6 -29 -8 -179 -20 -218 -8 -27
-24 -22 -24 7 0 14 -4 25 -10 25 -5 0 -10 -5 -10 -11 0 -21 -20 3 -20 24 -1
20 -3 19 -17 -8 -14 -24 -18 -26 -21 -13 -3 16 -5 16 -18 4 -8 -8 -14 -23 -14
-33 0 -16 -2 -15 -18 4 -9 12 -26 24 -37 25 -32 5 -33 22 -1 23 36 0 43 16 15
33 -18 12 -23 12 -30 0 -7 -10 -9 -9 -9 5 0 11 -8 17 -25 17 -14 0 -25 5 -25
11 0 6 9 9 20 6 15 -4 20 0 20 14 0 13 -6 19 -17 17 -21 -4 -29 27 -13 47 6 8
18 11 26 8 8 -3 14 0 14 6 0 6 -9 11 -20 11 -11 0 -20 5 -20 10 0 6 18 10 40
10 22 0 40 4 40 9 0 5 3 16 6 24 3 9 -3 17 -18 22 l-23 8 23 4 c17 3 22 11 22
34 l0 30 72 -2 c55 -2 73 1 77 12 3 10 5 11 9 2 2 -7 14 -13 27 -13z m-403
-29 c-2 -29 0 -31 29 -31 17 0 28 -4 24 -10 -3 -5 -15 -10 -26 -10 -20 0 -27
-34 -9 -45 6 -3 10 3 10 14 0 19 19 31 21 14 0 -5 2 -21 4 -36 3 -22 0 -27
-10 -23 -8 3 -17 1 -20 -4 -4 -6 6 -15 22 -21 19 -7 29 -7 31 0 7 21 22 11 22
-15 0 -20 -4 -24 -19 -19 -11 3 -22 1 -25 -4 -4 -6 -14 -7 -23 -4 -11 4 -14 2
-11 -8 3 -8 12 -13 22 -11 12 2 16 -5 16 -25 -1 -25 -2 -26 -11 -10 -10 17
-12 17 -25 -8 -8 -15 -14 -35 -14 -45 0 -11 -4 -30 -10 -45 -8 -22 -13 -24
-30 -15 -12 6 -18 16 -13 23 12 19 14 77 3 77 -5 0 -10 7 -10 15 0 8 -11 17
-24 21 -17 4 -22 11 -19 24 3 13 -4 23 -24 34 -15 8 -23 15 -17 16 15 0 24 56
11 69 -5 5 6 10 27 13 25 3 36 0 36 -9 0 -7 7 -13 15 -13 22 0 18 31 -5 37
-24 6 -16 23 11 23 22 0 25 10 7 28 -8 8 -8 15 2 27 19 23 35 12 32 -24z
m-154 -56 c0 -14 -3 -25 -7 -25 -3 0 -16 -3 -29 -6 -17 -5 -21 -3 -16 9 3 9
12 13 21 10 13 -5 15 -2 11 15 -4 14 -2 22 7 22 7 0 13 -11 13 -25z m52 15
c12 -8 11 -10 -7 -10 -13 0 -23 5 -23 10 0 13 11 13 30 0z m200 0 c0 -5 -7
-10 -15 -10 -8 0 -15 5 -15 10 0 6 7 10 15 10 8 0 15 -4 15 -10z m-10 -41 c0
-5 -4 -9 -10 -9 -5 0 -10 7 -10 16 0 8 5 12 10 9 6 -3 10 -10 10 -16z m-642
-28 c-12 -4 -29 20 -21 32 3 4 11 0 18 -10 9 -12 10 -19 3 -22z m52 14 c-7 -8
-17 -15 -23 -15 -6 0 -2 7 9 15 25 19 30 19 14 0z m598 -16 c-2 -6 -8 -10 -13
-10 -5 0 -11 4 -13 10 -2 6 4 11 13 11 9 0 15 -5 13 -11z m-619 -126 c12 -52
20 -121 14 -127 -10 -10 -42 14 -42 32 1 9 -5 36 -11 59 -14 47 -8 73 14 73 9
0 19 -15 25 -37z m621 11 c0 -8 -5 -12 -10 -9 -6 4 -8 11 -5 16 9 14 15 11 15
-7z m0 -84 c0 -5 -4 -10 -10 -10 -5 0 -10 5 -10 10 0 6 5 10 10 10 6 0 10 -4
10 -10z m-470 -45 c0 -8 -4 -17 -10 -20 -6 -4 -10 5 -10 20 0 15 4 24 10 20 6
-3 10 -12 10 -20z m60 5 c0 -11 -6 -20 -13 -20 -19 0 -27 10 -20 26 8 21 33
17 33 -6z m431 -34 c7 -14 23 -26 38 -29 34 -7 51 4 23 14 -28 10 -29 39 -2
39 11 0 20 -4 20 -10 0 -5 7 -10 15 -10 12 0 15 -30 17 -180 l3 -180 -96 0
-95 0 -10 60 c-8 47 -7 60 3 64 9 4 13 28 13 80 0 79 5 86 56 86 30 0 31 18 2
30 -13 5 -19 9 -14 9 6 1 2 7 -9 14 -10 8 -15 19 -11 25 12 20 36 13 47 -12z
m-511 -16 c0 -5 -5 -10 -11 -10 -5 0 -7 5 -4 10 3 6 8 10 11 10 2 0 4 -4 4
-10z m460 -25 c0 -8 -7 -15 -15 -15 -8 0 -15 7 -15 15 0 8 7 15 15 15 8 0 15
-7 15 -15z m-440 -26 c0 -5 -4 -9 -10 -9 -5 0 -10 7 -10 16 0 8 5 12 10 9 6
-3 10 -10 10 -16z m637 -131 c-2 -29 -3 -6 -3 52 0 58 1 81 3 53 2 -29 2 -77
0 -105z m119 105 c-3 -27 -8 -81 -12 -120 -3 -40 -11 -73 -16 -73 -7 0 -9 28
-5 83 4 45 7 99 7 120 0 27 4 37 16 37 13 0 15 -8 10 -47z m-904 -63 l-4 -90
26 0 c20 0 26 -5 26 -23 0 -44 43 -64 53 -26 4 15 11 20 22 15 9 -3 40 -6 69
-6 l53 0 0 -40 c0 -24 -4 -37 -10 -33 -5 3 -67 6 -138 7 -70 1 -130 4 -134 7
-3 4 -1 37 5 74 6 37 8 93 4 125 -7 60 -2 80 19 80 9 0 11 -25 9 -90z m197
-47 c0 -31 -2 -34 -9 -18 -12 28 -12 55 0 55 6 0 10 -17 9 -37z m48 -35 c-3
-8 -6 -5 -6 6 -1 11 2 17 5 13 3 -3 4 -12 1 -19z m603 -23 c10 -12 10 -18 -1
-31 -12 -15 -15 -14 -31 6 -10 12 -18 26 -18 31 0 15 37 10 50 -6z m120 -50
c0 -22 -6 -38 -15 -41 -23 -9 -31 3 -27 40 3 27 9 36 23 36 15 0 19 -7 19 -35z
m-198 -641 c-7 -13 -11 -9 -16 20 -4 23 -2 44 6 58 12 22 13 21 16 -19 2 -24
-1 -50 -6 -59z m-405 60 c-3 -3 -12 -4 -19 -1 -8 3 -5 6 6 6 11 1 17 -2 13 -5z
m311 -6 c-3 -7 -27 -16 -54 -19 -55 -6 -84 -17 -84 -30 0 -4 -17 -13 -39 -20
-31 -9 -44 -9 -67 2 -48 24 -37 44 21 41 35 -2 62 3 90 18 45 23 139 28 133 8z
m-10 -125 c3 -18 -3 -23 -33 -29 -47 -8 -93 10 -75 31 13 15 42 23 80 21 18
-1 26 -8 28 -23z m282 -213 c0 -16 -4 -30 -10 -30 -11 0 -14 43 -3 53 11 12
13 8 13 -23z m-20 -81 c0 -10 -4 -19 -10 -19 -5 0 -10 12 -10 26 0 14 4 23 10
19 6 -3 10 -15 10 -26z m77 -157 c-4 -32 -9 -66 -12 -74 -15 -38 -97 -23 -103
18 -2 15 8 28 38 47 22 15 46 36 52 47 22 35 31 22 25 -38z m-158 20 c6 -10 8
-27 6 -38 -14 -70 -16 -73 -30 -68 -10 4 -15 0 -15 -14 0 -32 -17 -35 -36 -7
-14 22 -15 32 -6 63 12 38 45 82 62 82 5 0 14 -8 19 -18z m-289 -42 c22 -22
27 -60 8 -60 -20 0 -48 32 -48 57 0 28 14 29 40 3z m-254 -27 c-10 -10 -19 5
-10 18 6 11 8 11 12 0 2 -7 1 -15 -2 -18z m-31 -107 c14 -9 25 -21 25 -26 0
-31 -56 -12 -98 33 l-24 25 36 -8 c20 -4 48 -15 61 -24z m-123 -28 c2 -29 12
-69 22 -89 9 -20 17 -45 17 -55 2 -110 -4 -242 -10 -253 -5 -7 -19 -11 -32 -9
-23 3 -24 7 -27 86 -3 81 -3 83 -35 102 -63 38 -77 52 -77 80 0 15 -5 42 -12
60 -10 31 -9 35 23 62 48 41 91 68 110 68 13 0 18 -12 21 -52z m308 -123 c0
-8 -4 -15 -9 -15 -13 0 -22 16 -14 24 11 11 23 6 23 -9z m-496 -95 c8 -67 4
-80 -24 -80 -26 0 -31 11 -20 51 5 19 12 46 15 62 9 45 22 31 29 -33z m-51
-155 c90 -17 97 -20 97 -42 0 -12 -7 -14 -32 -9 -18 4 -68 9 -110 13 -64 5
-78 9 -78 23 0 35 11 36 123 15z m925 -13 c5 -29 -31 -48 -52 -26 -22 21 -20
33 7 44 30 12 41 7 45 -18z m-108 -47 c18 -21 4 -65 -20 -65 -28 0 -56 45 -40
65 16 19 44 19 60 0z m87 -161 c3 -8 1 -20 -6 -27 -14 -14 -47 15 -37 32 10
16 36 13 43 -5z m-909 -71 c-10 -2 -28 -2 -40 0 -13 2 -5 4 17 4 22 1 32 -1
23 -4z m-139 -19 c30 -22 13 -34 -51 -34 -59 0 -78 7 -78 31 0 16 8 19 53 19
32 0 61 -6 76 -16z m242 5 c20 -10 20 -12 4 -29 -10 -11 -37 -22 -61 -26 -42
-6 -59 -26 -31 -38 9 -3 7 -8 -5 -16 -22 -13 -35 -77 -19 -93 15 -15 14 -34
-4 -41 -27 -10 -45 6 -57 51 -8 34 -19 50 -40 62 -64 35 -64 35 -17 63 24 14
66 29 92 33 31 5 51 14 58 26 11 21 49 25 80 8z m44 -191 c-10 -34 -23 -44
-37 -30 -9 9 -7 16 7 32 24 27 38 25 30 -2z m36 -385 c1 -16 1 -36 0 -45 -1
-10 3 -18 8 -18 6 0 11 6 11 14 0 17 32 76 41 76 3 0 11 -10 17 -22 8 -18 11
-19 11 -5 1 10 9 17 20 17 14 0 18 -5 14 -20 -3 -11 0 -20 6 -20 6 0 11 9 11
19 0 18 27 37 38 26 4 -3 9 -40 13 -83 3 -42 7 -71 7 -63 2 9 10 11 30 7 15
-4 37 -7 50 -7 19 1 22 -4 22 -33 0 -40 8 -66 21 -66 5 0 9 7 9 16 0 12 6 15
21 11 14 -4 22 1 28 16 5 12 17 22 27 22 13 0 22 11 29 33 6 22 14 31 23 27
21 -8 42 13 43 44 1 20 2 21 6 6 10 -48 17 -48 27 -1 15 62 29 68 44 18 19
-63 16 -91 -13 -102 -18 -7 -25 -17 -25 -36 0 -19 -4 -25 -15 -20 -8 3 -20 -3
-27 -13 -7 -9 -20 -20 -28 -24 -62 -29 -108 -69 -138 -117 -35 -60 -48 -68
-103 -69 -44 -1 -55 10 -69 74 -18 81 -20 85 -46 85 -18 0 -29 -9 -41 -34 -15
-33 -15 -38 8 -103 l24 -68 50 -5 c63 -7 78 -16 69 -43 -16 -50 9 -143 62
-235 14 -23 23 -50 21 -60 -3 -9 -8 -29 -11 -45 -9 -38 -20 -34 -48 20 -49 96
-82 149 -120 195 -21 26 -38 54 -38 62 0 25 -60 239 -71 252 -5 7 -26 15 -47
18 -20 4 -44 9 -53 12 -10 3 -20 -5 -27 -21 -13 -28 -4 -33 78 -37 28 -2 44
-7 43 -15 -2 -6 9 -67 22 -135 30 -149 30 -140 3 -136 -19 3 -24 13 -37 93 -8
50 -15 109 -15 133 l0 42 -41 0 c-73 0 -85 8 -85 51 0 33 4 40 24 45 26 6 32
26 51 151 4 24 11 45 16 49 5 3 9 16 9 30 0 54 39 88 41 37z m413 -54 c-3 -5
-10 -7 -15 -3 -5 3 -7 10 -3 15 3 5 10 7 15 3 5 -3 7 -10 3 -15z m50 0 c-3 -5
-10 -7 -15 -3 -5 3 -7 10 -3 15 3 5 10 7 15 3 5 -3 7 -10 3 -15z m-54 -65 c0
-8 -4 -12 -10 -9 -5 3 -10 10 -10 16 0 5 5 9 10 9 6 0 10 -7 10 -16z m-50 -34
c0 -5 -4 -10 -10 -10 -5 0 -10 5 -10 10 0 6 5 10 10 10 6 0 10 -4 10 -10z
m370 -245 c0 -10 -11 -15 -35 -15 -54 0 -43 27 13 29 13 1 22 -5 22 -14z
m-403 -87 c4 -31 18 -55 50 -89 23 -25 43 -51 43 -58 0 -6 -18 -30 -40 -52
l-40 -41 0 44 c0 36 -7 54 -35 91 -19 25 -35 52 -35 59 0 8 -5 19 -12 26 -9 9
-6 17 12 37 34 36 49 32 57 -17z m73 -8 c0 -45 -15 -52 -32 -15 -8 19 -8 28 2
40 21 25 30 17 30 -25z m480 -595 c7 -8 20 -15 29 -15 21 0 41 -19 41 -38 0
-17 -50 -8 -65 13 -9 11 -15 11 -35 -1 -55 -30 -78 -10 -38 33 25 27 50 30 68
8z"/>
<path d="M803 5400 c-26 -11 -28 -19 -10 -44 9 -12 23 -17 47 -14 28 2 36 8
38 27 6 37 -27 50 -75 31z"/>
<path d="M630 5375 c0 -8 5 -15 10 -15 6 0 10 7 10 15 0 8 -4 15 -10 15 -5 0
-10 -7 -10 -15z"/>
<path d="M863 5258 c-25 -12 -27 -17 -15 -35 10 -16 52 11 52 33 0 16 -7 17
-37 2z"/>
<path d="M570 4635 c0 -8 5 -15 10 -15 6 0 10 7 10 15 0 8 -4 15 -10 15 -5 0
-10 -7 -10 -15z"/>
<path d="M830 4226 c0 -24 -20 -30 -34 -10 -7 9 -18 14 -24 10 -13 -8 -16 -64
-6 -90 8 -20 24 -21 24 -2 0 22 19 30 36 15 17 -14 16 -15 33 35 11 32 11 40
0 47 -20 13 -29 11 -29 -5z"/>
<path d="M1211 4644 c0 -11 3 -14 6 -6 3 7 2 16 -1 19 -3 4 -6 -2 -5 -13z"/>
<path d="M830 4479 c0 -5 5 -7 10 -4 6 3 10 8 10 11 0 2 -4 4 -10 4 -5 0 -10
-5 -10 -11z"/>
<path d="M1026 4211 c-58 -9 -59 -31 -2 -31 39 0 46 3 46 20 0 11 -1 19 -2 19
-2 -1 -21 -5 -42 -8z"/>
<path d="M1000 4030 c0 -17 5 -20 35 -17 20 2 35 8 35 13 -1 5 -12 8 -25 6
-14 -2 -25 1 -25 7 0 6 -4 11 -10 11 -5 0 -10 -9 -10 -20z"/>
<path d="M600 1320 c0 -5 5 -10 11 -10 5 0 7 5 4 10 -3 6 -8 10 -11 10 -2 0
-4 -4 -4 -10z"/>
<path d="M591 1252 c-18 -35 -19 -41 -5 -46 39 -15 54 -7 54 28 0 18 -6 39
-14 46 -12 9 -18 4 -35 -28z"/>
<path d="M680 1210 c-12 -7 -12 -12 -2 -22 9 -9 15 -9 24 0 16 16 -2 34 -22
22z"/>
<path d="M737 1214 c-8 -8 3 -34 14 -34 11 0 12 27 0 34 -4 3 -11 3 -14 0z"/>
<path d="M1360 1433 c0 -5 5 -26 10 -48 13 -54 2 -165 -16 -165 -21 0 -17 -27
12 -76 31 -53 40 -134 27 -241 -5 -40 -6 -73 -2 -73 4 0 17 21 29 47 25 52 24
142 -1 201 -13 30 -12 35 4 46 14 11 17 29 17 105 0 64 -3 90 -12 89 -11 -3
-31 41 -42 95 -6 23 -26 40 -26 20z"/>
<path d="M1427 746 c-4 -15 -6 -31 -2 -34 10 -10 16 6 13 35 l-3 28 -8 -29z"/>
</g>
</svg>
